<svg width="16" height="16" viewBox="0 0 16 16" fill="none" xmlns="http://www.w3.org/2000/svg">
<path d="M7.8125 11.1304H6.09375C5.63791 11.1304 5.20087 11.3138 4.87854 11.6399C4.55621 11.9661 4.375 12.4083 4.375 12.8696C4.375 13.3308 4.55621 13.773 4.87854 14.0992C5.20087 14.4253 5.63791 14.6087 6.09375 14.6087C6.54959 14.6087 6.98663 14.4253 7.30896 14.0992C7.63129 13.773 7.8125 13.3308 7.8125 12.8696V11.1304ZM12.623 7.9144C12.6133 7.71528 12.5696 7.51916 12.4941 7.33458C12.4077 7.12358 12.2811 6.93187 12.1215 6.77038C11.9619 6.60889 11.7724 6.48074 11.5639 6.39334C11.3554 6.30596 11.1319 6.26087 10.9062 6.26087C10.6806 6.26087 10.4571 6.30596 10.2486 6.39334C10.0401 6.48074 9.85064 6.60889 9.69104 6.77038C9.53144 6.93187 9.4048 7.12358 9.31842 7.33458C9.23206 7.54556 9.1875 7.77164 9.1875 8C9.1875 8.22836 9.23206 8.45444 9.31842 8.66542C9.4048 8.87642 9.53144 9.06813 9.69104 9.22962C9.85064 9.39111 10.0401 9.51926 10.2486 9.60666C10.4571 9.69404 10.6806 9.73913 10.9062 9.73913C11.1319 9.73913 11.3554 9.69404 11.5639 9.60666C11.7724 9.51926 11.9619 9.39111 12.1215 9.22962C12.2811 9.06813 12.4077 8.87642 12.4941 8.66542C12.5804 8.45444 12.625 8.22836 12.625 8L12.623 7.9144ZM4.375 8C4.375 8.46125 4.55621 8.90347 4.87854 9.22962C5.20087 9.55577 5.63791 9.73913 6.09375 9.73913H7.8125V6.26087H6.09375C5.63791 6.26087 5.20087 6.44423 4.87854 6.77038C4.55621 7.09653 4.375 7.53875 4.375 8ZM12.625 3.13043C12.625 2.90207 12.5804 2.676 12.4941 2.46501C12.4077 2.25401 12.2811 2.06231 12.1215 1.90082C11.9619 1.73932 11.7724 1.61118 11.5639 1.52378C11.3815 1.44733 11.1876 1.40315 10.9908 1.39334L10.9062 1.3913H9.1875V4.86957H10.9062C11.1319 4.86957 11.3554 4.82447 11.5639 4.73709C11.7724 4.64969 11.9619 4.52155 12.1215 4.36005C12.2811 4.19856 12.4077 4.00686 12.4941 3.79586C12.5804 3.58487 12.625 3.3588 12.625 3.13043ZM4.375 3.13043C4.375 3.59168 4.55621 4.0339 4.87854 4.36005C5.20087 4.6862 5.63791 4.86957 6.09375 4.86957H7.8125V1.3913H6.09375C5.63791 1.3913 5.20087 1.57467 4.87854 1.90082C4.55621 2.22697 4.375 2.66919 4.375 3.13043ZM14 3.13043C14 3.54153 13.9198 3.94866 13.7643 4.32846C13.6089 4.70822 13.3812 5.05343 13.094 5.34409C13.0165 5.42243 12.9348 5.49587 12.8499 5.56522C12.9348 5.63457 13.0165 5.70801 13.094 5.78635C13.3812 6.07701 13.6089 6.42221 13.7643 6.80197C13.9198 7.18177 14 7.5889 14 8L13.9963 8.15387C13.9789 8.5124 13.9004 8.86569 13.7643 9.19803C13.6089 9.57779 13.3812 9.92299 13.094 10.2137C12.8067 10.5043 12.4655 10.7347 12.0902 10.892C11.7149 11.0493 11.3125 11.1304 10.9062 11.1304C10.5 11.1304 10.0976 11.0493 9.72226 10.892C9.53465 10.8133 9.35554 10.7165 9.1875 10.6029V12.8696C9.1875 13.6998 8.86165 14.4961 8.28146 15.0832C7.70127 15.6703 6.91426 16 6.09375 16C5.27324 16 4.48623 15.6703 3.90604 15.0832C3.32585 14.4961 3 13.6998 3 12.8696C3 12.0393 3.32585 11.243 3.90604 10.6559C3.98361 10.5774 4.0652 10.5039 4.14975 10.4348C4.0652 10.3657 3.98361 10.2921 3.90604 10.2137C3.32585 9.62658 3 8.83024 3 8C3 7.16976 3.32585 6.37342 3.90604 5.78635C3.98361 5.70785 4.0652 5.63434 4.14975 5.56522C4.0652 5.4961 3.98361 5.42258 3.90604 5.34409C3.32585 4.75702 3 3.96068 3 3.13043C3 2.30019 3.32585 1.50385 3.90604 0.91678C4.48623 0.32971 5.27324 0 6.09375 0H10.9062L11.0583 0.00373641C11.4126 0.0213801 11.7618 0.10079 12.0902 0.238451C12.4655 0.395769 12.8067 0.62612 13.094 0.91678C13.3812 1.20744 13.6089 1.55265 13.7643 1.9324C13.9198 2.31221 14 2.71934 14 3.13043Z" fill="white"/>
</svg>
