<svg width="16" height="16" viewBox="0 0 16 16" fill="currentColor" xmlns="http://www.w3.org/2000/svg">
<g clip-path="url(#clip0_32_6)">
<path d="M10.2675 15.3052V12.6161C10.2675 12.5979 10.2681 12.5796 10.2696 12.5614C10.2879 12.3285 10.2564 12.0943 10.1769 11.8744C10.0974 11.6545 9.97165 11.4539 9.80831 11.2861C9.62313 11.0958 9.56298 10.8169 9.65297 10.5675C9.74302 10.3181 9.96759 10.1412 10.2321 10.1119C11.2882 9.99461 12.2405 9.74642 12.9284 9.17036C13.5619 8.63983 14.072 7.74361 14.1033 6.10025L14.1047 5.93876C14.1045 5.14702 13.7988 4.38561 13.2506 3.81217C13.0666 3.61961 13.0088 3.33929 13.1021 3.09019C13.3026 2.55511 13.3337 1.97591 13.1989 1.42808L13.1944 1.4291C12.8541 1.50435 12.2517 1.71937 11.3535 2.31902C11.1858 2.43098 10.9775 2.46527 10.7826 2.41266C9.30309 2.01332 7.74362 2.01332 6.26412 2.41266C6.06921 2.46527 5.86093 2.43098 5.69318 2.31902C4.79499 1.71937 4.19257 1.50435 3.85227 1.4291L3.84751 1.42808C3.71266 1.97588 3.7441 2.55514 3.94459 3.09019C4.03789 3.3393 3.98014 3.61961 3.79607 3.81217C3.24386 4.38985 2.93782 5.15813 2.94204 5.95572V5.95945C2.94204 7.68997 3.46298 8.62154 4.11833 9.17036C4.80866 9.74848 5.76387 10.0028 6.82348 10.1339C7.08587 10.1664 7.30712 10.3439 7.3951 10.5923C7.48307 10.8406 7.42259 11.1172 7.23874 11.3064C7.07734 11.4726 6.95268 11.6708 6.87322 11.888C6.79377 12.1051 6.76123 12.3366 6.77749 12.5672C6.77864 12.5834 6.77919 12.5998 6.7792 12.6161V15.3052C6.77917 15.6889 6.46683 16 6.08153 16C5.69624 16 5.38389 15.6889 5.38387 15.3052V14.0916C4.82139 14.1773 4.32641 14.1632 3.88396 14.06C3.21093 13.9031 2.73028 13.558 2.36156 13.1908C2.18112 13.0111 2.02545 12.8244 1.89111 12.6568C1.74818 12.4785 1.64395 12.3411 1.52797 12.2055C1.29911 11.938 1.15703 11.8423 1.02857 11.8103C0.654809 11.7172 0.427549 11.3398 0.520994 10.9675C0.614462 10.5952 0.993393 10.3689 1.36718 10.462C1.93634 10.6037 2.31758 10.9857 2.59014 11.3044C2.72488 11.4619 2.86594 11.6449 2.9819 11.7896C3.10645 11.945 3.22333 12.084 3.3481 12.2082C3.58981 12.449 3.85053 12.625 4.20213 12.707C4.48132 12.772 4.85942 12.7869 5.38387 12.6805V12.6269C5.35993 12.2143 5.4202 11.8009 5.56237 11.4123C5.57223 11.3854 5.58311 11.3588 5.59371 11.3322C4.76528 11.1442 3.92389 10.8232 3.22036 10.234C2.17689 9.36014 1.54671 7.99496 1.54671 5.95945C1.54216 4.9448 1.88403 3.96327 2.50907 3.1723C2.2707 2.26817 2.33953 1.30629 2.71244 0.439765L2.74684 0.370892C2.83537 0.215361 2.98129 0.0986229 3.15529 0.0472226L3.35355 0.713561C3.15516 0.0474089 3.15665 0.0468833 3.15665 0.0468833L3.16074 0.0458655L3.16653 0.0441691C3.17055 0.0430522 3.17503 0.0419372 3.17948 0.0407763C3.18836 0.0384604 3.19816 0.0360542 3.20877 0.0336515C3.23005 0.0288351 3.25488 0.0238747 3.28304 0.0194019C3.33946 0.010447 3.40932 0.00303232 3.49288 0.000741697C3.66051 -0.00385121 3.88012 0.0120233 4.15444 0.0726683C4.65295 0.182891 5.32889 0.441022 6.20553 0.993464C7.72938 0.633077 9.31698 0.633128 10.8408 0.993464C11.7176 0.440916 12.3937 0.182901 12.8923 0.0726683C13.1666 0.0120233 13.3862 -0.00385121 13.5538 0.000741697C13.6374 0.00303232 13.7073 0.010447 13.7637 0.0194019C13.7918 0.0238747 13.8167 0.0288351 13.8379 0.0336515C13.8485 0.0360542 13.8584 0.0384604 13.8672 0.0407763C13.8717 0.0419372 13.8762 0.0430522 13.8802 0.0441691L13.886 0.0458655L13.8901 0.0468833C13.8901 0.0468833 13.8916 0.0474089 13.6932 0.713561L13.8914 0.0472226C14.0903 0.105962 14.2526 0.249912 14.3343 0.439765C14.7071 1.30609 14.7758 2.26768 14.5376 3.17162C15.1584 3.95702 15.4998 4.93081 15.5 5.93842C15.5 7.98556 14.8712 9.35899 13.8264 10.234C13.124 10.8222 12.2847 11.1399 11.4574 11.3214C11.4682 11.3487 11.4798 11.3758 11.4898 11.4035C11.6316 11.7957 11.6898 12.2126 11.6628 12.6283V15.3052C11.6628 15.6889 11.3505 16 10.9652 16C10.5799 16 10.2675 15.6889 10.2675 15.3052Z" fill="white"/>
</g>
<defs>
<clipPath id="clip0_32_6">
<rect width="16" height="16" fill="white"/>
</clipPath>
</defs>
</svg>
