<svg width="16" height="16" viewBox="0 0 16 16" fill="none" xmlns="http://www.w3.org/2000/svg">
<g clip-path="url(#clip0_52_1572)">
<path d="M4.8 12.8C4.8 11.9163 4.08366 11.2 3.2 11.2C2.31634 11.2 1.6 11.9163 1.6 12.8C1.6 13.6837 2.31634 14.4 3.2 14.4C4.08366 14.4 4.8 13.6837 4.8 12.8ZM14.4 11.2C14.4 10.3163 13.6837 9.59999 12.8 9.59999C11.9163 9.59999 11.2 10.3163 11.2 11.2C11.2 12.0836 11.9163 12.8 12.8 12.8C13.6837 12.8 14.4 12.0836 14.4 11.2ZM16 11.2C16 12.9673 14.5673 14.4 12.8 14.4C11.0327 14.4 9.6 12.9673 9.6 11.2C9.6 9.43268 11.0327 7.99998 12.8 7.99998C13.383 7.99998 13.9292 8.15649 14.4 8.42889V1.74411L6.4 3.07732V12.8C6.4 14.5673 4.96731 16 3.2 16C1.43269 16 0 14.5673 0 12.8C0 11.0327 1.43269 9.59999 3.2 9.59999C3.783 9.59999 4.32924 9.7565 4.8 10.0289V2.39997C4.8 2.00894 5.08267 1.67525 5.46836 1.61091L15.0684 0.0109071C15.3003 -0.0277524 15.5378 0.0374282 15.7172 0.189423C15.8966 0.341426 16 0.564809 16 0.799971V11.2Z" fill="#666666"/>
</g>
<defs>
<clipPath id="clip0_52_1572">
<rect width="16" height="16" fill="white"/>
</clipPath>
</defs>
</svg>
